<?xml version="1.0" encoding="UTF-8" standalone="no"?>
<!-- Created with Inkscape (http://www.inkscape.org/) -->

<svg
   xmlns:dc="http://purl.org/dc/elements/1.1/"
   xmlns:cc="http://creativecommons.org/ns#"
   xmlns:rdf="http://www.w3.org/1999/02/22-rdf-syntax-ns#"
   xmlns:svg="http://www.w3.org/2000/svg"
   xmlns="http://www.w3.org/2000/svg"
   version="1.1"
   width="1052.3622"
   height="744.09448"
   id="svg2"
   xml:space="preserve"><metadata
     id="metadata8"><rdf:RDF><cc:Work
         rdf:about=""><dc:format>image/svg+xml</dc:format><dc:type
           rdf:resource="http://purl.org/dc/dcmitype/StillImage" /><dc:title></dc:title></cc:Work></rdf:RDF></metadata><defs
     id="defs6"><clipPath
       id="clipPath22"><path
         d="m 0,2400 2400,0 L 2400,0 0,0 0,2400 z"
         id="path24" /></clipPath></defs><g
     transform="matrix(1.25,0,0,-1.25,0,744.09451)"
     id="g10"><g
       id="g3281"><g
         transform="matrix(0.44211624,0,0,0.44211624,-101.76528,-228.848)"
         id="g18"><g
           clip-path="url(#clipPath22)"
           id="g20"><g
             transform="translate(417.6396,1253.8428)"
             id="g26"><path
               d="m 0,0 c -0.797,-10.751 -1.881,-22.758 -3.225,-31.584 13.836,-0.239 28.179,1.302 32.417,4.329 1.93,1.379 3.564,11.016 4.863,22.725 C 21.815,-4.163 10.47,-2.599 0,0"
               id="path28"
               style="fill:#7bba93;fill-opacity:1;fill-rule:nonzero;stroke:none" /></g><g
             transform="translate(576.8965,1296.3271)"
             id="g30"><path
               d="m 0,0 c -0.364,-14.872 -1.563,-54.157 -4.413,-73.988 12.185,0.445 23.354,2.314 26.046,5.814 5.017,6.523 6.857,76.684 7.309,98.369 C 20.276,19.165 10.546,9.037 0,0"
               id="path32"
               style="fill:#7bba93;fill-opacity:1;fill-rule:nonzero;stroke:none" /></g><g
             transform="translate(648.2715,1445.2314)"
             id="g34"><path
               d="m 0,0 c 0,91.462 -67.714,143.892 -67.714,143.892 l -2.08,-1.901 c 34.96,-86.612 6.648,-167.752 -81.352,-167.752 -97.725,0 -70,135 -66,202 4.796,80.334 -9.074,138.994 -70.638,138.994 -59.169,0 -71.746,-11.511 -72.423,-69.745 -0.367,-31.567 16.161,-37.92 48.723,-37.92 16.252,0 43.337,6.204 43.337,-27.086 0,-34.17 -59.119,-142.678 -59.878,-237.72 -0.236,-29.366 7.369,-58.662 23.316,-82.716 -0.601,-42.517 0.176,-87.262 5.78,-94.178 6.136,-7.571 53.179,-7.507 61.497,-1.565 3.066,2.19 5.386,25.229 6.8,44.308 12.057,-2.992 25.272,-4.618 39.679,-4.618 14.744,0 29.485,2.129 43.874,6.112 1.401,-19.349 3.763,-43.554 6.909,-45.802 8.318,-5.942 55.555,-6.159 61.497,1.565 4.979,6.474 6.829,66.082 7.298,85.228 C -29.161,-112.729 0,-59.084 0,0"
               id="path36"
               style="fill:#86cb9f;fill-opacity:1;fill-rule:nonzero;stroke:none" /></g><g
             transform="translate(343.5625,1305.2773)"
             id="g38"><path
               d="M 0,0 C 0.586,41.499 2.483,80.876 2.483,80.876 L 2.484,80.875 C 5.975,186.243 94.141,348.252 13.439,347.783 25.6,346.808 36.562,341.614 36.562,320.437 36.562,286.266 -22.557,177.758 -23.316,82.716 -23.552,53.35 -15.947,24.054 0,0"
               id="path40"
               style="fill:#9ed4b0;fill-opacity:1;fill-rule:nonzero;stroke:none" /></g><g
             transform="translate(500.1885,1270.8242)"
             id="g42"><path
               d="m 0,0 c -17.299,-3.714 -50.068,-2.658 -80.97,8.731 -0.051,-1.069 -0.594,-12.425 -1.579,-25.712 12.057,-2.993 25.272,-4.619 39.679,-4.619 14.745,0 29.485,2.128 43.874,6.113 C 0.579,-9.631 0.243,-4.224 0,0"
               id="path44"
               style="fill:#9ed4b0;fill-opacity:1;fill-rule:nonzero;stroke:none" /></g><g
             transform="translate(566.2666,1444.8604)"
             id="g46"><path
               d="m 0,0 c -4.523,-4.505 -9.616,-8.491 -15.274,-11.895 5.545,-5.25 11.061,-8.156 14.289,-6.293 C 2.622,-16.104 2.499,-8.567 0,0 m -51.298,-24.188 c 4.586,-11.442 11.798,-20.836 16.984,-19.447 5.135,1.376 6.705,12.904 5.037,24.977 -6.741,-2.548 -14.081,-4.417 -22.021,-5.53 m -91.646,59.133 c -7.538,-13.056 -11.097,-29.853 -5.417,-33.132 3.932,-2.271 11.261,2.537 17.901,10.041 -3.994,8.71 -6.718,18.552 -8.491,29.087 -1.351,-1.744 -2.689,-3.737 -3.993,-5.996 m 19.625,-35.474 c -0.019,-0.069 -0.038,-0.133 -0.057,-0.2 -3.901,-14.563 -2.991,-31.709 3.344,-33.406 4.759,-1.275 11.225,6.531 15.803,16.669 -7.792,4.224 -14.07,9.986 -19.09,16.937 m 33.031,-22.361 c -0.005,-0.299 -0.01,-0.598 -0.01,-0.904 0,-15.076 5.317,-31.401 11.875,-31.401 6.331,0 11.504,15.215 11.855,29.832 -0.853,-0.016 -1.708,-0.027 -2.573,-0.027 -7.83,0 -14.851,0.871 -21.147,2.5"
               id="path48"
               style="fill:#7bba93;fill-opacity:1;fill-rule:nonzero;stroke:none" /></g><g
             transform="translate(350.7803,1722.3096)"
             id="g50"><path
               d="m 0,0 c 0,-5.107 4.141,-9.248 9.248,-9.248 5.108,0 9.249,4.141 9.249,9.248 0,5.108 -4.141,9.249 -9.249,9.249 C 4.141,9.249 0,5.108 0,0"
               id="path52"
               style="fill:#373535;fill-opacity:1;fill-rule:nonzero;stroke:none" /></g><g
             transform="translate(1293.7871,1695.4717)"
             id="g54"><path
               d="m 0,0 c -28.602,13.922 -62.109,17.111 -67.527,10.319 -11.412,-14.31 -13.461,-98.006 -55.001,-98.006 -13.462,0 -18.996,7.875 -20.046,24.436 -0.746,21.079 3.045,35.697 30.15,62.343 0,0 -25.262,2.807 -70.17,-36.032 -20.765,-17.959 -33.565,-40.803 -41.008,-61.668 -14.748,7.606 -26.164,17.712 -31.266,17.577 -9.433,-0.25 -13.521,-44.492 -9.568,-68 7,-41.627 22.75,-58.25 27,-57.5 4.25,0.75 13.5,29.5 49.236,52.25 19.885,12.659 47.102,15.378 63.264,11.5 16.67,-4 21.25,-15 39.1,-19.797 31.619,-8.498 97.131,11.646 95.475,17.401 -1.657,5.756 -48.526,-8.42 -49.702,0 -1.173,8.421 59.692,11.654 58.95,18.526 -0.742,6.872 -60.358,-5.599 -71.807,-2.807 -15.232,3.713 -12.055,24.474 12.857,51.02 43.026,45.844 93.211,22.695 96.608,31.499 C 58.328,-42.313 31.662,-15.412 0,0"
               id="path56"
               style="fill:#86cb9f;fill-opacity:1;fill-rule:nonzero;stroke:none" /></g><g
             transform="translate(1124.084,1617.0342)"
             id="g58"><path
               d="m 0,0 c 0,-5.108 -4.141,-9.249 -9.249,-9.249 -5.107,0 -9.248,4.141 -9.248,9.249 0,5.107 4.141,9.248 9.248,9.248 C -4.141,9.248 0,5.107 0,0"
               id="path60"
               style="fill:#373535;fill-opacity:1;fill-rule:nonzero;stroke:none" /></g><g
             transform="translate(1235.6016,1700.6904)"
             id="g62"><path
               d="m 0,0 c -13,-3.5 -5.75,-65.75 -40.75,-92.905 -27.036,-20.976 10.676,-33.869 37.111,-33.119 -1.957,9.184 4.955,24.459 21.762,42.368 34.697,36.969 74.045,29.073 89.76,29.248 C 75.557,-14.427 11.459,3.085 0,0 m -91.497,-115.595 c -7.756,-12.885 -18.786,-20.649 -22.814,-19.643 -6.742,1.683 2.814,12.911 -7.851,15.717 -10.666,2.807 -43.786,-44.908 -49.961,-41.54 -3.259,1.778 -3.78,22.687 3.833,48.426 -14.368,7.357 -23.177,16.043 -26.46,14.885 -3.806,-1.344 -11.818,-76.854 18.498,-110.938 5.566,8.092 17.094,30.634 46.237,49.188 19.885,12.659 47.103,15.378 63.265,11.5 0.562,-0.135 1.109,-0.279 1.646,-0.43 -14.669,4.91 -19.416,23.651 -26.393,32.835"
               id="path64"
               style="fill:#9ed4b0;fill-opacity:1;fill-rule:nonzero;stroke:none" /></g><g
             transform="translate(846.2041,1271.2451)"
             id="g66"><path
               d="m 0,0 c -17.555,6.996 -27.83,14.584 -36.541,20.345 0.847,-15.616 3.713,-61.853 8.12,-65.002 4.257,-3.04 18.702,-4.581 32.593,-4.327 C 2.236,-35.571 0.818,-14.528 0,0"
               id="path68"
               style="fill:#7bba93;fill-opacity:1;fill-rule:nonzero;stroke:none" /></g><g
             transform="translate(976.4736,1253.4922)"
             id="g70"><path
               d="m 0,0 c -8.638,-0.71 -17.777,-0.907 -27.442,-0.548 1.046,-12.754 2.396,-22.546 4.123,-24.791 2.693,-3.5 13.861,-5.369 26.047,-5.815 C 1.56,-23.028 0.669,-11.642 0,0"
               id="path72"
               style="fill:#7bba93;fill-opacity:1;fill-rule:nonzero;stroke:none" /></g><g
             transform="translate(1114.4922,1419.3066)"
             id="g74"><path
               d="m 0,0 c -9.584,-13.494 -21.002,-34.254 -57.851,-26.469 -23.138,4.888 -47.75,24.388 -94.319,33.704 23.994,42.952 -1.636,95.664 -104.826,100.849 -15.323,0.77 -36.925,-0.793 -36.855,-0.789 -72.276,-6.732 -79.909,-88.279 -55.627,-130.983 -26.356,-16.734 -45.209,-38.825 -44.682,-64.105 0.534,-25.656 9.416,-31.335 62.799,-30.538 22.077,0.329 28.287,-15.867 63.073,-29.731 1.24,-22.032 3.86,-59.057 7.573,-61.709 8.319,-5.943 55.36,-6.006 61.496,1.565 3.325,4.102 4.951,21.522 5.598,43.891 6.922,-0.697 14.289,-1.291 22.161,-1.764 11.911,-0.715 23.034,-0.591 33.441,0.265 1.139,-19.805 2.917,-38.888 5.613,-42.392 5.942,-7.725 53.178,-7.508 61.497,-1.565 5.012,3.58 8.032,62.863 8.354,69.5 45.558,32.098 61.957,88.355 65.946,138.713 L 0,0 z"
               id="path76"
               style="fill:#86cb9f;fill-opacity:1;fill-rule:nonzero;stroke:none" /></g><g
             transform="translate(1027.8496,1360.8682)"
             id="g78"><path
               d="m 0,0 c -8.141,0 -14.74,-6.6 -14.74,-14.741 0,-8.142 6.599,-14.741 14.74,-14.741 8.142,0 14.742,6.599 14.742,14.741 C 14.742,-6.6 8.142,0 0,0 m -23.989,-25.601 c -5.109,0 -9.249,-4.14 -9.249,-9.249 0,-5.107 4.14,-9.248 9.249,-9.248 5.108,0 9.249,4.141 9.249,9.248 0,5.109 -4.141,9.249 -9.249,9.249"
               id="path80"
               style="fill:#7bba93;fill-opacity:1;fill-rule:nonzero;stroke:none" /></g><g
             transform="translate(845.3926,1287.4248)"
             id="g82"><path
               d="M 0,0 C -19.152,5.656 -35.517,10.26 -46.678,10.442 -34.586,5.116 -24.377,-6.145 0.812,-16.182 0.279,-6.715 0.001,-0.014 0,0"
               id="path84"
               style="fill:#9ed4b0;fill-opacity:1;fill-rule:nonzero;stroke:none" /></g><g
             transform="translate(975.8652,1265.3379)"
             id="g86"><path
               d="m 0,0 c -6.872,-0.019 -16.561,0.14 -30.139,0.673 -8.112,0.319 -16.346,1.21 -24.584,2.48 -0.056,-4.645 -0.145,-9.164 -0.271,-13.499 6.923,-0.696 14.288,-1.292 22.161,-1.764 11.908,-0.714 23.038,-0.6 33.441,0.255 C 0.381,-7.893 0.179,-3.901 0,0"
               id="path88"
               style="fill:#9ed4b0;fill-opacity:1;fill-rule:nonzero;stroke:none" /></g><g
             transform="translate(813.2949,1360.2197)"
             id="g90"><path
               d="m 0,0 c 0,-5.107 4.141,-9.248 9.248,-9.248 5.108,0 9.249,4.141 9.249,9.248 0,5.107 -4.141,9.248 -9.249,9.248 C 4.141,9.248 0,5.107 0,0"
               id="path92"
               style="fill:#373535;fill-opacity:1;fill-rule:nonzero;stroke:none" /></g><g
             transform="translate(830.4551,1396.7949)"
             id="g94"><path
               d="m 0,0 c -18.392,17.761 -30.948,38.474 -33.014,37.281 -2.064,-1.193 -0.439,-28.706 15.78,-47.23 6.54,-7.47 12.443,-9.114 16.943,-5.908 C 5.176,-11.963 5.398,-5.214 0,0 m -86.705,39.284 c -1.992,-1.15 -0.542,-26.81 14.137,-45.252 5.159,3.675 10.685,7.129 16.48,10.34 -17.078,17.18 -28.641,36.052 -30.617,34.912 m -29.758,-65.065 c -1.459,-1.459 2.638,-14.811 11.987,-24.16 4.146,-4.146 7.798,-2.347 11.16,1.013 3.361,3.363 5.16,7.015 1.013,11.159 -9.349,9.35 -22.701,13.446 -24.16,11.988"
               id="path96"
               style="fill:#fdbb2f;fill-opacity:1;fill-rule:nonzero;stroke:none" /></g><g
             transform="translate(900.4287,1381.3848)"
             id="g98"><path
               d="m 0,0 c 83.95,35.96 91.255,125.45 -52.933,144.506 -9.882,1.307 -18.886,1.483 -27.062,0.705 12.69,1.726 21.739,1.565 37.062,0.795 C 102.155,138.716 93.95,37.46 10,1.5 -5.878,-5.301 -27.372,-12.61 -49.026,-15.155 -30.868,-11.864 -13.427,-5.751 0,0"
               id="path100"
               style="fill:#7bba93;fill-opacity:1;fill-rule:nonzero;stroke:none" /></g><g
             transform="translate(1315.373,1257.3164)"
             id="g102"><path
               d="m 0,0 c -11.056,1.232 -22.534,2.344 -34.905,3.188 1.423,-16.208 3.44,-32.115 5.963,-33.917 4.238,-3.028 18.582,-4.568 32.418,-4.33 C 1.984,-25.267 0.813,-11.563 0,0"
               id="path104"
               style="fill:#7bba93;fill-opacity:1;fill-rule:nonzero;stroke:none" /></g><g
             transform="translate(1465.499,1247.3027)"
             id="g106"><path
               d="m 0,0 c -6.902,-0.396 -13.78,-0.602 -20.612,-0.602 -2.251,0 -4.463,0.013 -6.65,0.034 0.956,-9.646 2.13,-16.717 3.565,-18.581 2.692,-3.5 13.86,-5.37 26.046,-5.816 C 1.389,-18.289 0.616,-9.412 0,0"
               id="path108"
               style="fill:#7bba93;fill-opacity:1;fill-rule:nonzero;stroke:none" /></g><g
             transform="translate(1524.6494,1507.9355)"
             id="g110"><path
               d="m 0,0 c -7.922,4.146 -25.851,0.439 -30.854,-4.146 -3.513,-3.221 -5.213,-12.567 -5.273,-19.609 10.825,-4.968 21.061,-11.296 30.846,-18.474 6.061,2.603 11.937,7.752 13.62,11.398 C 10.841,-25.411 7.922,-4.146 0,0 m 23.349,-41.982 c -4.589,-2.09 -8.067,-9.015 -9.469,-15.712 7.781,-6.805 15.311,-13.963 22.674,-21.166 5.523,1.278 11.475,3.953 13.062,6.335 2.502,3.752 4.587,22.931 0,26.98 -4.586,4.049 -19.595,6.602 -26.267,3.563 M 66.042,-84.59 c -3.786,-0.94 -7.945,-8.859 -9.557,-13.997 7.11,-7.011 14.128,-13.783 21.14,-20.01 5.452,1.352 11.038,3.508 12.867,5.26 3.187,3.054 3.486,20.296 0,24.466 -3.485,4.169 -19.864,5.42 -24.45,4.281 M -73.246,40.466 C -85.162,41.3 -109.95,26.707 -111.162,16.7 c -1.029,-8.501 4.088,-22.717 8.463,-30.638 5.124,1.052 10.462,1.617 16.04,1.617 9.498,0 18.558,-1.167 27.243,-3.274 5.752,6.184 12.728,17.371 12.719,24.472 -0.016,12 -14.634,30.755 -26.549,31.589 m 191.659,-158.331 c -5.392,3.166 -17.096,1.115 -20.848,-2.037 -1.821,-1.53 -3.553,-6.582 -4.41,-11.457 7.532,-5.619 15.124,-10.352 22.88,-13.831 2.427,1.04 4.444,2.35 5.296,3.869 2.529,4.502 3.752,19.539 -2.918,23.456 m -345.169,-13.574 c -3.753,3.152 -21.259,3.395 -24.425,0.216 -3.461,-3.473 -4.482,-19.162 -1.954,-23.664 1.41,-2.511 6.378,-4.122 11.104,-4.909 6.377,4.993 12.482,11.55 18.492,19.119 -0.607,4.169 -1.729,7.988 -3.217,9.238 m 53.588,84.138 c -6.671,3.039 -23.977,1.13 -27.409,-3.933 -3.728,-5.497 -1.469,-23.367 1.033,-27.12 1.828,-2.742 8.799,-5.196 14.538,-5.772 6.116,9.027 12.486,17.929 19.261,26.228 -1.435,4.785 -3.918,9.001 -7.423,10.597 m -31.66,-40.5 c -4.587,1.139 -20.484,-4.406 -23.969,-8.575 -3.485,-4.17 0.484,-21.264 3.669,-24.316 2.02,-1.936 7.857,-3.449 13.244,-4.073 5.531,8.039 11.078,16.646 16.78,25.389 -2.688,5.132 -6.782,10.845 -9.724,11.575 m 49.055,87.256 c -7.102,-5.434 -10.193,-24.866 -7.691,-30.286 1.571,-3.405 6.803,-8.125 12.426,-10.856 9.624,9.396 20.112,17.217 31.803,22.418 -0.584,6.086 -2.234,12.554 -5.036,15.123 -5.003,4.585 -25.517,8.181 -31.502,3.601"
               id="path112"
               style="fill:#fdbb2f;fill-opacity:1;fill-rule:nonzero;stroke:none" /></g><g
             transform="translate(1724.8379,1381.3994)"
             id="g114"><path
               d="m 0,0 c -110.001,-96.006 -158.92,114.215 -286.848,114.215 -93.739,0 -120.519,-157.841 -182.084,-157.841 -72.192,0 -82.056,-10.678 -82.422,-42.246 -0.368,-31.566 15.995,-33.42 59.222,-33.42 32.829,0 58.713,-2.122 82.667,-4.791 1.381,-19.637 3.795,-45.457 7.051,-47.782 8.318,-5.942 55.36,-6.006 61.496,1.565 3.022,3.73 4.641,18.457 5.397,37.903 16.642,-1.385 34.689,-2.301 55.57,-2.301 6.832,0 13.71,0.205 20.612,0.601 1.142,-17.445 2.82,-33.065 5.234,-36.203 5.942,-7.724 53.178,-7.507 61.497,-1.565 3.33,2.379 5.78,29.347 7.144,49.13 81.037,20.158 155.318,64.267 188.498,120.549 L 0,0 z"
               id="path116"
               style="fill:#86cb9f;fill-opacity:1;fill-rule:nonzero;stroke:none" /></g><g
             transform="translate(1250.833,1311.8291)"
             id="g118"><path
               d="m 0,0 c 0,-5.107 -4.141,-9.248 -9.249,-9.248 -5.107,0 -9.248,4.141 -9.248,9.248 0,5.108 4.141,9.249 9.248,9.249 C -4.141,9.249 0,5.108 0,0"
               id="path120"
               style="fill:#373535;fill-opacity:1;fill-rule:nonzero;stroke:none" /></g><g
             transform="translate(1604.3389,1350.1973)"
             id="g122"><path
               d="m 0,0 c -4.033,0 -7.303,-3.27 -7.303,-7.303 0,-4.033 3.27,-7.303 7.303,-7.303 4.033,0 7.303,3.27 7.303,7.303 C 7.303,-3.27 4.033,0 0,0 m 23.473,7.303 c -5.52,0 -9.994,-4.475 -9.994,-9.994 0,-5.519 4.474,-9.994 9.994,-9.994 5.518,0 9.993,4.475 9.993,9.994 0,5.519 -4.475,9.994 -9.993,9.994 m -196.892,96.49 c -6.976,0 -12.63,-5.655 -12.63,-12.63 0,-6.975 5.654,-12.63 12.63,-12.63 6.976,0 12.63,5.655 12.63,12.63 0,6.975 -5.654,12.63 -12.63,12.63 m 17.974,-0.829 c 5.096,0 9.229,4.132 9.229,9.229 0,5.097 -4.133,9.23 -9.229,9.23 -5.098,0 -9.23,-4.133 -9.23,-9.23 0,-5.097 4.132,-9.229 9.23,-9.229 m 10.443,-3.693 c -5.768,0 -10.443,-4.677 -10.443,-10.445 0,-5.767 4.675,-10.443 10.443,-10.443 5.769,0 10.444,4.676 10.444,10.443 0,5.768 -4.675,10.445 -10.444,10.445"
               id="path124"
               style="fill:#7bba93;fill-opacity:1;fill-rule:nonzero;stroke:none" /></g><g
             transform="translate(1421.9941,1267.8857)"
             id="g126"><path
               d="m 0,0 c -11.28,0.381 -22.009,0.792 -32.198,1.203 -0.082,-7.047 -0.237,-13.812 -0.48,-20.087 16.643,-1.385 34.691,-2.301 55.571,-2.301 6.832,0 13.71,0.204 20.612,0.601 -0.444,6.794 -0.808,13.863 -1.103,20.582 C 28.16,-0.494 13.983,-0.473 0,0 M 118.427,7.954 C 118.228,4.188 117.876,-2.039 117.381,-9.22 193.886,9.813 264.37,50.19 299.932,102.007 253.806,49.123 188.113,20.641 118.427,7.954 M -177.811,-5.868 c 27.508,-0.427 50.098,-2.353 71.19,-4.702 -0.392,5.568 -0.7,10.634 -0.922,14.531 -36.737,0.687 -59.754,-1.128 -70.268,-9.829"
               id="path128"
               style="fill:#9ed4b0;fill-opacity:1;fill-rule:nonzero;stroke:none" /></g><g
             transform="translate(1719.1426,1365.959)"
             id="g130"><path
               d="M 0,0 C -2.573,-3.532 -5.312,-7.008 -8.201,-10.426 -1.69,-15.604 8.96,-21.335 11.197,-18.813 13.505,-16.213 6.024,-5.758 0,0 m -21.043,-24.269 c 5.422,-6.156 12.293,-11.864 14.812,-10.202 2.856,1.885 -0.797,12.648 -5.011,20.532 -3.111,-3.509 -6.378,-6.955 -9.801,-10.33 m -0.14,24.776 c -4.293,8.012 -14.526,20.132 -18.11,18.212 -3.584,-1.92 0.841,-17.154 5.134,-25.165 2.583,-4.82 6.83,-5.767 10.413,-3.847 3.584,1.92 5.144,5.98 2.563,10.8 m 10.753,-2.931 c 3.585,0.841 5.903,4.027 4.774,8.848 -1.877,8.014 -7.989,21.016 -11.574,20.178 -3.585,-0.84 -3.286,-15.205 -1.409,-23.219 1.13,-4.821 4.624,-6.646 8.209,-5.807"
               id="path132"
               style="fill:#fdbb2f;fill-opacity:1;fill-rule:nonzero;stroke:none" /></g><g
             transform="translate(2111.9414,1402.4893)"
             id="g134"><path
               d="m 0,0 c 0,36.638 -19.163,63.692 -19.163,63.692 l -3.327,-1.915 c 0,-42.301 -32.19,-66.606 -74.463,-66.606 -42.274,0 -75.819,34.294 -75.819,91.995 0,82.396 -12.169,128.957 -94.738,128.957 -79.353,0 -128.05,-6.17 -121.065,-83.962 4.183,-46.602 45.612,-60.431 89.282,-60.431 21.795,0 38.97,8.322 38.97,-36.326 0,-6.779 0.019,-13.291 0.071,-19.551 -8.547,-3.019 -18.615,-5.484 -24.039,-8.12 -15.637,-7.597 1.539,-27.044 4.179,-25.065 2.638,1.978 -5.278,9.235 -1.759,11.214 3.517,1.978 4.617,-8.795 7.694,-7.256 3.078,1.539 -4.616,12.311 3.189,12.972 3.089,0.261 7.055,0.592 10.939,1.223 1.587,-81.02 11.554,-114.662 65.788,-126.552 -0.015,-0.607 -0.028,-1.215 -0.028,-1.829 0,-26.885 28.645,-33.442 28.645,-40.001 0,-3.52 -8.708,-4.867 -18.003,-6.35 -12.934,-2.067 -19.884,-4.125 -19.666,-7.682 0.096,-1.537 1.866,-2.843 4.735,-3.776 -3.352,-2.006 -5.696,-4.107 -5.558,-6.298 0.406,-6.418 31.191,-7.822 56.658,-1.805 20.771,4.908 38.003,14.913 32.327,29.846 -3.73,9.812 -5.216,20.739 -3.652,32.329 C -28.287,-129.865 0,-55.818 0,0"
               id="path136"
               style="fill:#86cb9f;fill-opacity:1;fill-rule:nonzero;stroke:none" /></g><g
             transform="translate(1864.7637,1408.0381)"
             id="g138"><path
               d="m 0,0 c -2.591,-2.491 -7.653,-3.881 -12.871,-4.728 1.588,-81.02 11.555,-114.661 65.788,-126.551 0.217,8.751 1.978,16.822 4.704,24.169 C -0.803,-98.945 -0.764,-38.277 0,0"
               id="path140"
               style="fill:#9ed4b0;fill-opacity:1;fill-rule:nonzero;stroke:none" /></g><g
             transform="translate(1851.6182,1437.8936)"
             id="g142"><path
               d="m 0,0 c 0,-6.779 0.02,-13.291 0.071,-19.552 5.717,2.019 10.755,4.285 13.264,7.017 C 13.014,22.844 7.831,36.554 -21.493,36.929 -8.665,36.698 0,31.709 0,0"
               id="path144"
               style="fill:#9ed4b0;fill-opacity:1;fill-rule:nonzero;stroke:none" /></g><g
             transform="translate(1917.6523,1274.9297)"
             id="g146"><path
               d="m 0,0 c 0,0.613 0.013,1.222 0.028,1.828 -29.654,6.502 -46.073,19.505 -55.125,43.198 -2.338,-7.108 -3.751,-14.858 -3.751,-23.212 0,-26.885 28.645,-33.443 28.645,-40.002 0,-3.52 -8.707,-4.867 -18.004,-6.35 -12.932,-2.066 -19.883,-4.125 -19.663,-7.681 0.096,-1.537 1.864,-2.844 4.733,-3.777 -3.351,-2.006 -5.696,-4.106 -5.557,-6.298 0.404,-6.417 31.19,-7.821 56.657,-1.805 12.405,2.931 23.544,7.682 29.298,14.213 C 9.268,-24.006 0,-15.294 0,0"
               id="path148"
               style="fill:#7bba93;fill-opacity:1;fill-rule:nonzero;stroke:none" /></g><g
             transform="translate(1851.6191,1436.374)"
             id="g150"><path
               d="m 0,0 c -7.201,1.93 -14.912,4.899 -20.687,5.477 -17.299,1.729 -12.868,-23.835 -9.584,-23.535 3.285,0.301 0.348,10.63 4.382,10.471 4.032,-0.158 -0.679,-9.91 2.748,-10.213 3.427,-0.303 2.524,12.905 9.517,9.375 3.708,-1.872 8.821,-4.456 13.669,-6.084 C 0.016,-9.813 0.002,-4.979 0,0"
               id="path152"
               style="fill:#7bba93;fill-opacity:1;fill-rule:nonzero;stroke:none" /></g><g
             transform="translate(1856.2266,1577.4629)"
             id="g154"><path
               d="m 0,0 c 0,-4.891 -3.964,-8.855 -8.854,-8.855 -4.891,0 -8.856,3.964 -8.856,8.855 0,4.891 3.965,8.855 8.856,8.855 C -3.964,8.855 0,4.891 0,0"
               id="path156"
               style="fill:#373535;fill-opacity:1;fill-rule:nonzero;stroke:none" /></g><g
             transform="translate(2077.3262,1424.999)"
             id="g158"><path
               d="m 0,0 c -3.419,-4.619 -7.486,-8.689 -12.105,-12.183 4.226,-3.309 8.166,-4.859 10.667,-3.415 C 1.759,-13.752 1.895,-7.433 0,0 m -47.404,-26.27 c 4.278,-8.571 9.858,-14.818 14.052,-13.694 4.191,1.122 5.899,9.304 5.327,18.851 -5.995,-2.412 -12.494,-4.141 -19.379,-5.157 m -28.182,-24.764 c 5.363,0 9.856,11.406 11.053,23.729 -7.834,0.222 -15.349,1.631 -22.383,4.159 0.476,-13.785 5.363,-27.888 11.33,-27.888 m -61.781,86.312 c -7.219,-12.502 -10.627,-28.586 -5.189,-31.725 3.58,-2.067 10.098,1.992 16.193,8.569 -4.059,7.687 -7.18,16.41 -9.192,26.085 -0.61,-0.92 -1.215,-1.894 -1.812,-2.929 M -118.825,0.36 c -3.504,-13.774 -2.56,-29.632 3.396,-31.228 4.349,-1.165 10.186,5.591 14.519,14.647 -6.716,4.336 -12.753,9.891 -17.915,16.581"
               id="path160"
               style="fill:#7bba93;fill-opacity:1;fill-rule:nonzero;stroke:none" /></g><g
             transform="translate(1791.0156,1516.7715)"
             id="g162"><path
               d="m 0,0 c 0,-9.389 7.188,-17.001 8.766,-17.001 1.578,0 8.766,7.612 8.766,17.001 L 0,0 z m -26.299,-17.001 c 1.578,0 8.767,7.612 8.767,17.001 l -17.533,0 c 0,-9.389 7.188,-17.001 8.766,-17.001 m 17.531,0 C -7.188,-17.001 0,-9.389 0,0 l -17.532,0 c 0,-9.389 7.186,-17.001 8.764,-17.001"
               id="path164"
               style="fill:#ffffff;fill-opacity:1;fill-rule:nonzero;stroke:none" /></g><g
             transform="translate(1982.3613,688.1982)"
             id="g166"><path
               d="m 0,0 c 0.796,-10.751 1.881,-22.758 3.225,-31.585 -13.836,-0.238 -28.18,1.303 -32.418,4.33 -1.93,1.379 -3.564,11.016 -4.863,22.725 C -21.816,-4.163 -10.471,-2.599 0,0"
               id="path168"
               style="fill:#f26c36;fill-opacity:1;fill-rule:nonzero;stroke:none" /></g><g
             transform="translate(1823.1035,730.6826)"
             id="g170"><path
               d="m 0,0 c 0.365,-14.872 1.563,-54.157 4.413,-73.989 -12.184,0.446 -23.354,2.315 -26.046,5.815 -5.017,6.523 -6.857,76.684 -7.308,98.369 C -20.276,19.165 -10.545,9.037 0,0"
               id="path172"
               style="fill:#f26c36;fill-opacity:1;fill-rule:nonzero;stroke:none" /></g><g
             transform="translate(1751.7285,879.5869)"
             id="g174"><path
               d="m 0,0 c 0,91.462 67.715,143.892 67.715,143.892 l 2.08,-1.901 C 34.834,55.379 63.146,-25.761 151.146,-25.761 c 97.725,0 70,135 66,202 -4.796,80.334 9.074,138.994 70.639,138.994 59.168,0 71.745,-11.511 72.422,-69.745 0.367,-31.567 -16.16,-37.92 -48.723,-37.92 -16.252,0 -43.336,6.204 -43.336,-27.086 0,-34.17 59.118,-142.678 59.877,-237.72 0.236,-29.366 -7.369,-58.662 -23.316,-82.716 0.602,-42.517 -0.176,-87.262 -5.779,-94.178 -6.137,-7.571 -53.18,-7.507 -61.498,-1.565 -3.066,2.19 -5.386,25.229 -6.799,44.308 -12.058,-2.992 -25.272,-4.618 -39.68,-4.618 -14.744,0 -29.484,2.129 -43.873,6.111 -1.402,-19.349 -3.764,-43.553 -6.91,-45.801 -8.318,-5.942 -55.555,-6.159 -61.496,1.565 -4.98,6.473 -6.83,66.082 -7.299,85.228 C 29.162,-112.729 0,-59.085 0,0"
               id="path176"
               style="fill:#f58750;fill-opacity:1;fill-rule:nonzero;stroke:none" /></g><g
             transform="translate(2056.4375,739.6328)"
             id="g178"><path
               d="m 0,0 c -0.586,41.499 -2.483,80.876 -2.483,80.876 l -10e-4,-0.001 c -3.491,105.368 -91.657,267.377 -10.955,266.908 -12.161,-0.975 -23.122,-6.169 -23.122,-27.346 0,-34.171 59.118,-142.679 59.877,-237.721 C 23.552,53.35 15.947,24.054 0,0"
               id="path180"
               style="fill:#f8a274;fill-opacity:1;fill-rule:nonzero;stroke:none" /></g><g
             transform="translate(1899.8125,705.1797)"
             id="g182"><path
               d="m 0,0 c 17.298,-3.714 50.068,-2.658 80.969,8.731 0.051,-1.069 0.595,-12.426 1.58,-25.712 -12.058,-2.993 -25.272,-4.619 -39.68,-4.619 -14.744,0 -29.484,2.128 -43.873,6.113 C -0.58,-9.631 -0.244,-4.224 0,0"
               id="path184"
               style="fill:#f8a274;fill-opacity:1;fill-rule:nonzero;stroke:none" /></g><g
             transform="translate(1834.7188,861.0283)"
             id="g186"><path
               d="M 0,0 C 3.229,-1.863 8.744,1.043 14.289,6.293 8.631,9.696 3.539,13.683 -0.984,18.188 -3.484,9.62 -3.607,2.083 0,0 m 28.292,-0.471 c -1.667,-12.073 -0.099,-23.6 5.037,-24.976 5.186,-1.39 12.398,8.005 16.984,19.447 -7.94,1.112 -15.28,2.981 -22.021,5.529 m 109.675,59.6 c -1.774,-10.535 -4.498,-20.377 -8.492,-29.088 6.64,-7.504 13.968,-12.312 17.902,-10.041 5.68,3.279 2.121,20.076 -5.418,33.133 -1.305,2.259 -2.643,4.252 -3.992,5.996 M 103.244,0.722 c 4.578,-10.138 11.045,-17.945 15.803,-16.669 6.336,1.697 7.246,18.843 3.344,33.405 -0.018,0.067 -0.037,0.132 -0.057,0.2 -5.02,-6.951 -11.297,-12.713 -19.09,-16.936 M 68.156,-7.202 c -0.865,0 -1.72,0.011 -2.572,0.026 0.35,-14.617 5.523,-29.832 11.854,-29.832 6.558,0 11.875,16.325 11.875,31.402 0,0.305 -0.005,0.604 -0.01,0.904 -6.296,-1.629 -13.317,-2.5 -21.147,-2.5"
               id="path188"
               style="fill:#f26c36;fill-opacity:1;fill-rule:nonzero;stroke:none" /></g><g
             transform="translate(2049.2207,1156.665)"
             id="g190"><path
               d="m 0,0 c 0,-5.107 -4.141,-9.248 -9.248,-9.248 -5.109,0 -9.25,4.141 -9.25,9.248 0,5.108 4.141,9.249 9.25,9.249 C -4.141,9.249 0,5.108 0,0"
               id="path192"
               style="fill:#373535;fill-opacity:1;fill-rule:nonzero;stroke:none" /></g><g
             transform="translate(1106.2129,1129.8262)"
             id="g194"><path
               d="m 0,0 c 28.602,13.922 62.109,17.111 67.527,10.32 11.412,-14.31 13.461,-98.006 55.002,-98.006 13.461,0 18.995,7.875 20.045,24.436 0.746,21.078 -3.045,35.697 -30.15,62.343 0,0 25.262,2.807 70.17,-36.032 20.765,-17.959 33.565,-40.803 41.008,-61.668 14.748,7.605 26.164,17.711 31.267,17.576 9.432,-0.25 13.52,-44.492 9.567,-68 -7,-41.626 -22.75,-58.25 -27,-57.5 -4.25,0.75 -13.5,29.5 -49.235,52.25 -19.885,12.66 -47.103,15.379 -63.265,11.5 -16.67,-4 -21.25,-15 -39.1,-19.797 -31.619,-8.497 -97.131,11.646 -95.475,17.402 1.657,5.756 48.526,-8.42 49.702,0 1.173,8.42 -59.692,11.653 -58.95,18.526 0.742,6.871 60.358,-5.599 71.807,-2.807 15.232,3.713 12.055,24.473 -12.857,51.019 -43.026,45.844 -93.211,22.696 -96.608,31.5 C -58.328,-42.313 -31.662,-15.412 0,0"
               id="path196"
               style="fill:#bc9b6c;fill-opacity:1;fill-rule:nonzero;stroke:none" /></g><g
             transform="translate(1275.916,1051.3887)"
             id="g198"><path
               d="m 0,0 c 0,-5.107 4.141,-9.248 9.25,-9.248 5.107,0 9.248,4.141 9.248,9.248 0,5.107 -4.141,9.248 -9.248,9.248 C 4.141,9.248 0,5.107 0,0"
               id="path200"
               style="fill:#373535;fill-opacity:1;fill-rule:nonzero;stroke:none" /></g><g
             transform="translate(1056.5156,1080.6367)"
             id="g202"><path
               d="m 0,0 c 15.715,-0.174 55.063,7.723 89.76,-29.248 16.806,-17.908 23.719,-33.184 21.761,-42.367 26.436,-0.75 64.149,12.142 37.112,33.119 -35,27.154 -27.75,89.404 -40.75,92.904 C 96.424,57.494 32.326,39.982 0,0 m 172.988,-94.021 c 0.535,0.15 1.082,0.294 1.645,0.429 16.162,3.879 43.381,1.16 63.265,-11.5 29.143,-18.553 40.67,-41.096 46.237,-49.187 30.316,34.084 22.304,109.594 18.498,110.937 -3.283,1.159 -12.092,-7.527 -26.46,-14.885 7.613,-25.738 7.092,-46.648 3.833,-48.425 -6.174,-3.368 -39.295,44.347 -49.961,41.541 -10.664,-2.807 -1.109,-14.035 -7.852,-15.719 -4.027,-1.006 -15.057,6.759 -22.813,19.644 -6.978,-9.184 -11.724,-27.925 -26.392,-32.835"
               id="path204"
               style="fill:#c7ab82;fill-opacity:1;fill-rule:nonzero;stroke:none" /></g><g
             transform="translate(1553.7959,705.6006)"
             id="g206"><path
               d="M 0,0 C 17.555,6.996 27.83,14.583 36.542,20.345 35.694,4.729 32.828,-41.508 28.421,-44.657 24.165,-47.698 9.719,-49.238 -4.171,-48.984 -2.235,-35.571 -0.817,-14.528 0,0"
               id="path208"
               style="fill:#f179ae;fill-opacity:1;fill-rule:nonzero;stroke:none" /></g><g
             transform="translate(1423.5273,687.8477)"
             id="g210"><path
               d="M 0,0 C 8.637,-0.71 17.776,-0.907 27.441,-0.548 26.395,-13.302 25.045,-23.094 23.318,-25.34 20.625,-28.839 9.457,-30.709 -2.729,-31.154 -1.561,-23.029 -0.67,-11.642 0,0"
               id="path212"
               style="fill:#f179ae;fill-opacity:1;fill-rule:nonzero;stroke:none" /></g><g
             transform="translate(1285.5078,853.6621)"
             id="g214"><path
               d="m 0,0 c 9.584,-13.494 21.002,-34.254 57.851,-26.469 23.139,4.888 47.751,24.387 94.319,33.704 -23.994,42.951 1.637,95.663 104.826,100.849 15.324,0.77 36.925,-0.793 36.856,-0.789 72.275,-6.732 79.908,-88.279 55.626,-130.983 26.356,-16.734 45.209,-38.826 44.682,-64.105 -0.534,-25.656 -9.416,-31.336 -62.799,-30.539 -22.077,0.33 -28.287,-15.866 -63.073,-29.73 -1.24,-22.032 -3.86,-59.057 -7.573,-61.709 -8.319,-5.944 -55.36,-6.006 -61.496,1.564 -3.325,4.103 -4.951,21.523 -5.598,43.892 -6.922,-0.697 -14.289,-1.292 -22.161,-1.764 -11.911,-0.715 -23.034,-0.591 -33.44,0.265 -1.139,-19.805 -2.918,-38.888 -5.614,-42.393 -5.942,-7.725 -53.178,-7.508 -61.497,-1.564 -5.012,3.58 -8.032,62.863 -8.354,69.5 C 16.997,-108.173 0.598,-51.916 -3.391,-1.558 L 0,0 z"
               id="path216"
               style="fill:#f38bb9;fill-opacity:1;fill-rule:nonzero;stroke:none" /></g><g
             transform="translate(1357.4082,780.4824)"
             id="g218"><path
               d="m 0,0 c 0,-8.142 6.601,-14.742 14.742,-14.742 8.141,0 14.74,6.6 14.74,14.742 0,8.141 -6.599,14.74 -14.74,14.74 C 6.601,14.74 0,8.141 0,0 m 29.482,-20.108 c 0,-5.108 4.141,-9.248 9.249,-9.248 5.109,0 9.249,4.14 9.249,9.248 0,5.108 -4.14,9.249 -9.249,9.249 -5.108,0 -9.249,-4.141 -9.249,-9.249"
               id="path220"
               style="fill:#f179ae;fill-opacity:1;fill-rule:nonzero;stroke:none" /></g><g
             transform="translate(1554.6074,721.7793)"
             id="g222"><path
               d="M 0,0 C 19.152,5.656 35.518,10.26 46.678,10.443 34.586,5.117 24.377,-6.144 -0.812,-16.182 -0.279,-6.714 0,-0.013 0,0"
               id="path224"
               style="fill:#f6b0ce;fill-opacity:1;fill-rule:nonzero;stroke:none" /></g><g
             transform="translate(1424.1348,699.6934)"
             id="g226"><path
               d="m 0,0 c 6.873,-0.019 16.561,0.139 30.139,0.673 8.113,0.319 16.346,1.21 24.584,2.479 0.056,-4.644 0.146,-9.164 0.271,-13.498 -6.922,-0.696 -14.288,-1.292 -22.161,-1.764 -11.908,-0.714 -23.038,-0.6 -33.441,0.255 C -0.381,-7.893 -0.178,-3.901 0,0"
               id="path228"
               style="fill:#f6b0ce;fill-opacity:1;fill-rule:nonzero;stroke:none" /></g><g
             transform="translate(1586.7051,794.5742)"
             id="g230"><path
               d="m 0,0 c 0,-5.107 -4.141,-9.248 -9.248,-9.248 -5.108,0 -9.249,4.141 -9.249,9.248 0,5.108 4.141,9.249 9.249,9.249 C -4.141,9.249 0,5.108 0,0"
               id="path232"
               style="fill:#373535;fill-opacity:1;fill-rule:nonzero;stroke:none" /></g><g
             transform="translate(1569.8359,815.293)"
             id="g234"><path
               d="M 0,0 C 4.5,-3.206 10.403,-1.562 16.943,5.908 33.162,24.432 34.787,51.945 32.723,53.139 30.657,54.331 18.101,33.618 -0.291,15.857 -5.689,10.644 -5.467,3.895 0,0 M 55.797,20.229 C 61.592,17.018 67.119,13.564 72.277,9.889 86.957,28.331 88.406,53.99 86.414,55.142 84.439,56.281 72.875,37.409 55.797,20.229 m 36.215,-42.14 c -4.147,-4.146 -2.348,-7.798 1.013,-11.159 3.362,-3.362 7.014,-5.16 11.16,-1.014 9.349,9.35 13.446,22.701 11.987,24.16 -1.459,1.458 -14.811,-2.638 -24.16,-11.987"
               id="path236"
               style="fill:#fdbb2f;fill-opacity:1;fill-rule:nonzero;stroke:none" /></g><g
             transform="translate(1499.5713,815.7402)"
             id="g238"><path
               d="m 0,0 c -83.95,35.96 -91.255,125.45 52.933,144.506 9.882,1.307 18.886,1.483 27.062,0.705 -12.689,1.726 -21.738,1.564 -37.062,0.795 C -102.155,138.715 -93.95,37.46 -10,1.5 5.878,-5.301 27.372,-12.611 49.026,-15.155 30.868,-11.865 13.427,-5.751 0,0"
               id="path240"
               style="fill:#f179ae;fill-opacity:1;fill-rule:nonzero;stroke:none" /></g><g
             transform="translate(1084.627,691.6719)"
             id="g242"><path
               d="M 0,0 C 11.056,1.232 22.534,2.344 34.905,3.188 33.482,-13.02 31.465,-28.928 28.942,-30.729 24.704,-33.757 10.36,-35.297 -3.476,-35.059 -1.984,-25.267 -0.813,-11.563 0,0"
               id="path244"
               style="fill:#e6ab2e;fill-opacity:1;fill-rule:nonzero;stroke:none" /></g><g
             transform="translate(934.501,681.6582)"
             id="g246"><path
               d="m 0,0 c 6.902,-0.396 13.78,-0.602 20.612,-0.602 2.251,0 4.463,0.012 6.65,0.034 -0.956,-9.646 -2.13,-16.717 -3.565,-18.582 -2.692,-3.499 -13.86,-5.37 -26.046,-5.815 C -1.389,-18.289 -0.616,-9.412 0,0"
               id="path248"
               style="fill:#e6ab2e;fill-opacity:1;fill-rule:nonzero;stroke:none" /></g><g
             transform="translate(867.0117,911.459)"
             id="g250"><path
               d="m 0,0 c 1.683,-3.645 7.559,-8.794 13.62,-11.398 9.785,7.179 20.021,13.507 30.846,18.475 -0.06,7.042 -1.76,16.388 -5.274,19.609 C 34.189,31.271 16.261,34.979 8.339,30.832 0.417,26.686 -2.502,5.421 0,0 m -41.277,-14.713 c -4.587,-4.049 -2.502,-23.228 0,-26.98 1.587,-2.382 7.539,-5.057 13.062,-6.335 7.362,7.203 14.893,14.36 22.674,21.166 -1.402,6.697 -4.88,13.622 -9.469,15.712 -6.672,3.039 -21.681,0.486 -26.267,-3.563 m -40.876,-43.326 c -3.486,-4.17 -3.187,-21.412 0,-24.466 1.829,-1.753 7.415,-3.908 12.867,-5.261 7.012,6.228 14.03,13 21.14,20.01 -1.612,5.139 -5.771,13.058 -9.557,13.998 -4.586,1.139 -20.965,-0.112 -24.45,-4.281 M 55.036,39.709 c -0.009,-7.102 6.967,-18.289 12.719,-24.472 8.684,2.107 17.745,3.274 27.243,3.274 5.578,0 10.916,-0.566 16.04,-1.616 4.375,7.92 9.492,22.136 8.463,30.637 -1.212,10.007 -26,24.6 -37.916,23.766 C 69.67,70.464 55.052,51.709 55.036,39.709 M -112.992,-110.49 c 0.852,-1.518 2.869,-2.828 5.296,-3.868 7.756,3.479 15.348,8.212 22.88,13.831 -0.857,4.875 -2.589,9.927 -4.411,11.457 -3.752,3.152 -15.455,5.203 -20.847,2.037 -6.67,-3.918 -5.447,-18.955 -2.918,-23.457 m 344.87,0.645 c 6.01,-7.569 12.115,-14.126 18.492,-19.119 4.726,0.787 9.693,2.398 11.104,4.909 2.528,4.502 1.506,20.191 -1.954,23.664 -3.166,3.178 -20.672,2.936 -24.425,-0.216 -1.489,-1.25 -2.61,-5.069 -3.217,-9.238 m -57.794,82.779 c 6.774,-8.299 13.145,-17.201 19.261,-26.229 5.739,0.576 12.71,3.031 14.538,5.774 2.502,3.751 4.761,21.622 1.033,27.119 -3.433,5.063 -20.738,6.972 -27.409,3.933 -3.505,-1.596 -5.988,-5.812 -7.423,-10.597 m 29.358,-41.478 c 5.703,-8.743 11.249,-17.351 16.781,-25.389 5.386,0.624 11.224,2.137 13.244,4.072 3.185,3.053 7.154,20.147 3.669,24.316 -3.486,4.17 -19.382,9.715 -23.969,8.576 -2.942,-0.73 -7.036,-6.443 -9.725,-11.575 m -70.833,95.23 c -2.801,-2.569 -4.451,-9.037 -5.035,-15.123 11.691,-5.202 22.179,-13.022 31.803,-22.417 5.623,2.73 10.854,7.45 12.426,10.854 2.502,5.421 -0.589,24.854 -7.691,30.287 -5.985,4.58 -26.499,0.984 -31.503,-3.601"
               id="path252"
               style="fill:#e6ab2e;fill-opacity:1;fill-rule:nonzero;stroke:none" /></g><g
             transform="translate(675.1621,815.7549)"
             id="g254"><path
               d="m 0,0 c 110.001,-96.007 158.92,114.215 286.848,114.215 93.739,0 120.519,-157.841 182.084,-157.841 72.192,0 82.056,-10.678 82.422,-42.246 0.368,-31.566 -15.995,-33.42 -59.222,-33.42 -32.829,0 -58.713,-2.122 -82.667,-4.791 -1.381,-19.637 -3.795,-45.457 -7.051,-47.782 -8.318,-5.943 -55.36,-6.006 -61.496,1.565 -3.022,3.729 -4.641,18.457 -5.397,37.903 -16.642,-1.385 -34.689,-2.301 -55.57,-2.301 -6.832,0 -13.71,0.205 -20.612,0.601 -1.142,-17.445 -2.82,-33.066 -5.234,-36.203 -5.942,-7.724 -53.178,-7.508 -61.497,-1.565 -3.33,2.379 -5.78,29.347 -7.144,49.13 C 104.427,-102.577 30.146,-58.468 -3.034,-2.186 L 0,0 z"
               id="path256"
               style="fill:#fdbb2f;fill-opacity:1;fill-rule:nonzero;stroke:none" /></g><g
             transform="translate(1149.167,746.1846)"
             id="g258"><path
               d="m 0,0 c 0,-5.107 4.141,-9.248 9.249,-9.248 5.107,0 9.248,4.141 9.248,9.248 0,5.108 -4.141,9.249 -9.248,9.249 C 4.141,9.249 0,5.108 0,0"
               id="path260"
               style="fill:#373535;fill-opacity:1;fill-rule:nonzero;stroke:none" /></g><g
             transform="translate(788.3584,777.25)"
             id="g262"><path
               d="m 0,0 c 0,-4.033 3.27,-7.304 7.303,-7.304 4.033,0 7.302,3.271 7.302,7.304 0,4.033 -3.269,7.303 -7.302,7.303 C 3.27,7.303 0,4.033 0,0 m -26.163,4.611 c 0,-5.519 4.475,-9.994 9.993,-9.994 5.52,0 9.994,4.475 9.994,9.994 0,5.52 -4.474,9.994 -9.994,9.994 -5.518,0 -9.993,-4.474 -9.993,-9.994 m 194.255,93.854 c 0,-6.975 5.654,-12.629 12.63,-12.629 6.975,0 12.63,5.654 12.63,12.629 0,6.975 -5.655,12.631 -12.63,12.631 -6.976,0 -12.63,-5.656 -12.63,-12.631 m 3.886,21.031 c 0,5.097 -4.132,9.229 -9.23,9.229 -5.097,0 -9.229,-4.132 -9.229,-9.229 0,-5.098 4.132,-9.23 9.229,-9.23 5.098,0 9.23,4.132 9.23,9.23 M 141.86,96.129 c 0,-5.768 4.676,-10.443 10.445,-10.443 5.767,0 10.443,4.675 10.443,10.443 0,5.767 -4.676,10.443 -10.443,10.443 -5.769,0 -10.445,-4.676 -10.445,-10.443"
               id="path264"
               style="fill:#e6ab2e;fill-opacity:1;fill-rule:nonzero;stroke:none" /></g><g
             transform="translate(935.6035,702.2393)"
             id="g266"><path
               d="m 0,0 c -0.295,-6.719 -0.658,-13.788 -1.103,-20.583 6.903,-0.396 13.781,-0.6 20.613,-0.6 20.88,0 38.928,0.916 55.57,2.301 -0.243,6.274 -0.397,13.04 -0.479,20.086 C 64.411,0.794 53.683,0.383 42.402,0.001 28.419,-0.472 14.242,-0.492 0,0 m -257.529,102.009 c 35.561,-51.817 106.046,-92.195 182.55,-111.227 -0.495,7.18 -0.846,13.407 -1.045,17.174 -69.687,12.687 -135.379,41.169 -181.505,94.053 M 149.945,3.963 c -0.221,-3.897 -0.53,-8.963 -0.922,-14.531 21.092,2.349 43.682,4.275 71.19,4.702 -10.514,8.701 -33.53,10.515 -70.268,9.829"
               id="path268"
               style="fill:#ffc757;fill-opacity:1;fill-rule:nonzero;stroke:none" /></g><g
             transform="translate(669.6602,781.5)"
             id="g270"><path
               d="M 0,0 C 2.237,-2.521 12.888,3.209 19.398,8.389 16.509,11.807 13.771,15.281 11.197,18.814 5.173,13.057 -2.308,2.602 0,0 m 22.439,4.875 c -4.213,-7.885 -7.867,-18.646 -5.01,-20.531 2.518,-1.662 9.389,4.046 14.811,10.201 -3.423,3.376 -6.69,6.821 -9.801,10.33 m 12.504,3.646 c 3.583,-1.919 7.83,-0.972 10.413,3.846 4.293,8.012 8.718,23.246 5.134,25.166 -3.584,1.92 -13.817,-10.2 -18.11,-18.212 -2.581,-4.819 -1.021,-8.88 2.563,-10.8 m -5.107,13.676 c 1.877,8.015 2.177,22.379 -1.408,23.219 -3.586,0.839 -9.698,-12.163 -11.574,-20.178 -1.129,-4.821 1.188,-8.008 4.773,-8.847 3.585,-0.84 7.079,0.985 8.209,5.806"
               id="path272"
               style="fill:#e6ab2e;fill-opacity:1;fill-rule:nonzero;stroke:none" /></g><g
             transform="translate(288.0586,836.8447)"
             id="g274"><path
               d="m 0,0 c 0,36.638 19.163,63.692 19.163,63.692 l 3.327,-1.915 c 0,-42.301 32.19,-66.606 74.463,-66.606 42.274,0 75.819,34.294 75.819,91.995 0,82.396 12.169,128.957 94.738,128.957 79.353,0 128.05,-6.17 121.065,-83.962 -4.183,-46.602 -45.612,-60.431 -89.282,-60.431 -21.795,0 -38.97,8.322 -38.97,-36.326 0,-6.78 -0.019,-13.292 -0.071,-19.551 8.547,-3.019 18.615,-5.485 24.039,-8.12 15.637,-7.597 -1.539,-27.044 -4.179,-25.065 -2.638,1.978 5.278,9.235 1.759,11.214 -3.517,1.978 -4.617,-8.795 -7.694,-7.256 -3.078,1.539 4.616,12.311 -3.189,12.972 -3.089,0.26 -7.055,0.592 -10.939,1.223 -1.587,-81.02 -11.554,-114.662 -65.788,-126.552 0.015,-0.607 0.028,-1.215 0.028,-1.829 0,-26.885 -28.645,-33.442 -28.645,-40.001 0,-3.52 8.708,-4.867 18.003,-6.35 12.934,-2.067 19.884,-4.125 19.666,-7.682 -0.096,-1.537 -1.866,-2.843 -4.735,-3.776 3.352,-2.006 5.696,-4.107 5.558,-6.298 -0.406,-6.418 -31.191,-7.822 -56.658,-1.805 -20.771,4.908 -38.003,14.913 -32.327,29.846 3.73,9.811 5.216,20.739 3.652,32.329 C 28.287,-129.866 0,-55.818 0,0"
               id="path276"
               style="fill:#67cade;fill-opacity:1;fill-rule:nonzero;stroke:none" /></g><g
             transform="translate(535.2363,842.3936)"
             id="g278"><path
               d="m 0,0 c 2.591,-2.491 7.653,-3.882 12.871,-4.728 -1.588,-81.02 -11.555,-114.661 -65.788,-126.551 -0.217,8.751 -1.978,16.822 -4.704,24.169 C 0.803,-98.946 0.764,-38.278 0,0"
               id="path280"
               style="fill:#90d6e5;fill-opacity:1;fill-rule:nonzero;stroke:none" /></g><g
             transform="translate(548.3818,872.249)"
             id="g282"><path
               d="m 0,0 c 0,-6.78 -0.02,-13.292 -0.071,-19.552 -5.717,2.019 -10.755,4.285 -13.264,7.016 0.321,35.379 5.504,49.09 34.828,49.465 C 8.665,36.698 0,31.709 0,0"
               id="path284"
               style="fill:#90d6e5;fill-opacity:1;fill-rule:nonzero;stroke:none" /></g><g
             transform="translate(482.3477,709.2852)"
             id="g286"><path
               d="m 0,0 c 0,0.613 -0.013,1.222 -0.028,1.828 29.654,6.502 46.073,19.505 55.125,43.198 2.338,-7.108 3.751,-14.858 3.751,-23.212 0,-26.885 -28.645,-33.443 -28.645,-40.002 0,-3.52 8.707,-4.867 18.004,-6.35 12.932,-2.066 19.883,-4.125 19.663,-7.681 -0.096,-1.537 -1.864,-2.844 -4.733,-3.777 3.351,-2.006 5.696,-4.106 5.557,-6.298 -0.404,-6.417 -31.19,-7.821 -56.657,-1.805 -12.405,2.931 -23.544,7.682 -29.298,14.213 C -9.268,-24.006 0,-15.295 0,0"
               id="path288"
               style="fill:#2bc0d8;fill-opacity:1;fill-rule:nonzero;stroke:none" /></g><g
             transform="translate(548.3809,870.7295)"
             id="g290"><path
               d="m 0,0 c 7.201,1.929 14.912,4.899 20.687,5.477 17.299,1.729 12.868,-23.835 9.584,-23.535 -3.285,0.301 -0.348,10.63 -4.382,10.471 -4.032,-0.158 0.679,-9.91 -2.748,-10.213 -3.427,-0.303 -2.524,12.905 -9.517,9.375 C 9.916,-10.298 4.803,-12.881 -0.045,-14.509 -0.016,-9.813 -0.002,-4.979 0,0"
               id="path292"
               style="fill:#2bc0d8;fill-opacity:1;fill-rule:nonzero;stroke:none" /></g><g
             transform="translate(543.7734,1011.8184)"
             id="g294"><path
               d="m 0,0 c 0,-4.891 3.964,-8.855 8.854,-8.855 4.891,0 8.856,3.964 8.856,8.855 0,4.891 -3.965,8.855 -8.856,8.855 C 3.964,8.855 0,4.891 0,0"
               id="path296"
               style="fill:#373535;fill-opacity:1;fill-rule:nonzero;stroke:none" /></g><g
             transform="translate(324.1113,843.7568)"
             id="g298"><path
               d="M 0,0 C 2.502,-1.444 6.441,0.105 10.668,3.415 6.049,6.908 1.981,10.979 -1.438,15.598 -3.332,8.165 -3.196,1.846 0,0 m 26.588,-5.516 c -0.572,-9.547 1.136,-17.728 5.326,-18.85 4.194,-1.124 9.774,5.123 14.053,13.694 -6.886,1.016 -13.385,2.744 -19.379,5.156 m 58.891,-2.032 c -7.035,-2.528 -14.549,-3.937 -22.383,-4.159 1.197,-12.323 5.689,-23.73 11.052,-23.73 5.967,0 10.855,14.104 11.331,27.889 m 48.638,61.353 c -2.012,-9.675 -5.133,-18.399 -9.191,-26.085 6.095,-6.577 12.612,-10.636 16.192,-8.57 5.439,3.14 2.03,19.224 -5.188,31.726 -0.598,1.035 -1.202,2.009 -1.813,2.929 M 99.473,-0.623 c 4.333,-9.057 10.17,-15.813 14.518,-14.648 5.956,1.596 6.901,17.455 3.397,31.229 -5.162,-6.69 -11.2,-12.245 -17.915,-16.581"
               id="path300"
               style="fill:#2bc0d8;fill-opacity:1;fill-rule:nonzero;stroke:none" /></g><g
             transform="translate(591.4521,951.127)"
             id="g302"><path
               d="m 0,0 c 0,-9.389 7.188,-17.001 8.767,-17.001 1.578,0 8.765,7.612 8.765,17.001 L 0,0 z M 52.598,0 35.064,0 c 0,-9.389 7.189,-17.001 8.767,-17.001 1.578,0 8.767,7.612 8.767,17.001 M 35.064,0 17.532,0 c 0,-9.389 7.189,-17.001 8.768,-17.001 1.578,0 8.764,7.612 8.764,17.001"
               id="path304"
               style="fill:#ffffff;fill-opacity:1;fill-rule:nonzero;stroke:none" /></g></g></g></g></g></svg>